Coordinates
version=1
nRows=13
nColumns=22
inDegrees=yes

Units are S.I. units (second, meters, Newtons, ...)
If the header above contains a line with 'inDegrees', this indicates whether rotational values are in degrees (yes) or radians (no).

endheader
time	pelvis_tilt	pelvis_list	pelvis_rotation	pelvis_tx	pelvis_ty	pelvis_tz	hip_flexion_r	hip_adduction_r	hip_rotation_r	knee_angle_r	ankle_angle_r	subtalar_angle_r	hip_flexion_l	hip_adduction_l	hip_rotation_l	knee_angle_l	ankle_angle_l	subtalar_angle_l	lumbar_extension	lumbar_bending	lumbar_rotation
      1.27000000	     -1.69420585	     -1.74928279	    -14.10706623	     -0.97075222	      0.89411024	     -0.46928178	     28.06438505	      1.57706048	      0.63919312	    -37.69146031	     16.59693834	     -8.97944336	     -1.81919918	     -0.38182107	    -11.15070714	    -18.00294941	     23.50545316	     -7.19112245	    -14.05338521	      0.52872067	      2.52976062
      1.28000000	     -1.65463330	     -1.97472297	    -13.87958918	     -0.96614231	      0.89344136	     -0.46843471	     28.05354082	      1.62747209	      0.15816638	    -36.13694112	     16.52222293	     -8.83362995	     -2.16075870	     -0.60964484	    -10.90038254	    -18.13871156	     23.82967278	     -7.21461768	    -14.21836066	      0.77441438	      2.55965721
      1.29000000	     -1.59262714	     -2.20184979	    -13.65860167	     -0.96131812	      0.89273336	     -0.46746395	     27.98549044	      1.66849659	     -0.35055280	    -34.53595095	     16.42948377	     -8.56209559	     -2.57173856	     -0.83420475	    -10.66148765	    -18.21627693	     24.14504628	     -7.24406147	    -14.38647043	      1.01336824	      2.58360135
      1.30000000	     -1.57379410	     -2.42309747	    -13.43689262	     -0.95644664	      0.89184935	     -0.46640111	     27.95575208	      1.72516520	     -0.81902200	    -32.92283168	     16.32587030	     -8.30421769	     -2.88566542	     -1.07981913	    -10.40813565	    -18.40133267	     24.48811962	     -7.25774920	    -14.50889110	      1.25377584	      2.65429628
      1.31000000	     -1.49414361	     -2.64497012	    -13.22081725	     -0.95136576	      0.89098816	     -0.46523647	     27.84106787	      1.76278169	     -1.30541937	    -31.30730908	     16.22650244	     -7.80411188	     -3.31027097	     -1.30549289	    -10.13072885	    -18.52539894	     24.78624824	     -7.26940740	    -14.68547653	      1.47845974	      2.72237662
      1.32000000	     -1.52441147	     -2.86791354	    -13.00415884	     -0.94622700	      0.88985118	     -0.46395504	     27.84933511	      1.83770940	     -1.76346934	    -29.72817643	     16.10579319	     -7.56498444	     -3.56131593	     -1.58617609	     -9.88352312	    -18.77348014	     25.16399740	     -7.26250222	    -14.73314881	      1.73195760	      2.79435243
      1.33000000	     -1.50839262	     -3.10311433	    -12.77780263	     -0.94091326	      0.88872243	     -0.46258691	     27.79561320	      1.90683377	     -2.24035419	    -28.18280406	     16.00393286	     -7.24474576	     -3.88455049	     -1.86902576	     -9.59466183	    -19.00295561	     25.51255114	     -7.24481944	    -14.82945461	      1.98600273	      2.85738945
      1.34000000	     -1.44626692	     -3.33524539	    -12.56188653	     -0.93543224	      0.88759620	     -0.46112737	     27.69832750	      1.96434420	     -2.70790996	    -26.70120746	     15.92588671	     -6.71183858	     -4.28300407	     -2.13412222	     -9.27867207	    -19.20641479	     25.80354252	     -7.20070232	    -14.97180399	      2.22605928	      2.93046033
      1.35000000	     -1.49036713	     -3.56977367	    -12.35048752	     -0.92988809	      0.88621943	     -0.45953775	     27.73659260	      2.05924897	     -3.13965760	    -25.31455547	     15.81710366	     -6.50829548	     -4.52099752	     -2.45055680	     -8.98869629	    -19.51834727	     26.18224090	     -7.16708361	    -14.99111904	      2.49197063	      2.99177957
      1.36000000	     -1.48453941	     -3.81816392	    -12.12678053	     -0.92417066	      0.88487764	     -0.45786970	     27.72025284	      2.14856242	     -3.59687753	    -24.00898789	     15.73775628	     -6.26074378	     -4.83490508	     -2.77070857	     -8.65572873	    -19.81360482	     26.51786693	     -7.12068422	    -15.06829385	      2.76221230	      3.03117398
      1.37000000	     -1.47024981	     -4.07057731	    -11.90920129	     -0.91831083	      0.88350282	     -0.45609647	     27.70873098	      2.24315123	     -4.05016109	    -22.81101285	     15.66142338	     -6.01082338	     -5.16733188	     -3.09838534	     -8.32070809	    -20.11631364	     26.83469522	     -7.06736705	    -15.15427126	      3.03417836	      3.06398816
      1.38000000	     -1.44891473	     -4.32865139	    -11.69189457	     -0.91231082	      0.88211029	     -0.45421043	     27.70133204	      2.34501749	     -4.50385727	    -21.72686499	     15.58719982	     -5.77804871	     -5.51621832	     -3.43791176	     -7.97904348	    -20.42727386	     27.13186117	     -7.01164416	    -15.24843826	      3.30639956	      3.08022912
      1.39000000	     -1.41794077	     -4.58939018	    -11.47777728	     -0.90616798	      0.88071640	     -0.45221463	     27.69448033	      2.45253789	     -4.95172043	    -20.76369286	     15.51889963	     -5.56552095	     -5.88792688	     -3.78362203	     -7.63411520	    -20.73949438	     27.39728839	     -6.95692314	    -15.35405136	      3.57796203	      3.08625818
